<svg xmlns="http://www.w3.org/2000/svg" xmlns:xlink="http://www.w3.org/1999/xlink" width="940" zoomAndPan="magnify" viewBox="0 0 705 591.000005" height="788" preserveAspectRatio="xMidYMid meet" version="1.0"><defs><clipPath id="b2aed49eaf"><path d="M 0.59375 0 L 704.402344 0 L 704.402344 590 L 0.59375 590 Z M 0.59375 0 " clip-rule="nonzero"/></clipPath><clipPath id="de0dad563e"><path d="M 43.769531 230 L 279 230 L 279 368 L 43.769531 368 Z M 43.769531 230 " clip-rule="nonzero"/></clipPath></defs><g clip-path="url(#b2aed49eaf)"><path fill="#ffffff" d="M 0.59375 0 L 704.40625 0 L 704.40625 590 L 0.59375 590 Z M 0.59375 0 " fill-opacity="1" fill-rule="nonzero"/></g><g clip-path="url(#de0dad563e)"><path fill="#191919" d="M 71.597656 230.808594 L 66.753906 254.65625 C 72.230469 246.3125 78.671875 238.347656 86.027344 230.808594 Z M 148.910156 287.707031 C 143.789062 292.875 140.96875 299.019531 140.96875 305.023438 C 140.96875 308.492188 141.933594 311.628906 143.773438 314.222656 L 148.570312 314.222656 L 154.777344 283.140625 C 152.695312 284.355469 150.703125 285.890625 148.910156 287.707031 Z M 69.875 319.160156 C 69.875 306.410156 72.757812 293.457031 78.441406 280.679688 C 84.34375 267.367188 93.007812 254.90625 104.175781 243.636719 C 108.851562 238.917969 113.800781 234.640625 118.980469 230.808594 L 141.808594 230.808594 C 141.066406 231.152344 140.335938 231.503906 139.597656 231.871094 C 129.714844 236.738281 120.636719 243.316406 112.625 251.402344 C 104.214844 259.894531 97.476562 269.191406 92.597656 279.066406 C 87.875 288.621094 85.011719 298.429688 84.09375 308.234375 C 82.230469 328.085938 88.566406 346.445312 101.914062 359.90625 C 104.6875 362.707031 107.742188 365.1875 111.054688 367.324219 L 87.4375 367.324219 C 82.140625 361.273438 77.96875 354.449219 75.019531 346.964844 C 71.605469 338.316406 69.875 328.964844 69.875 319.160156 Z M 108.648438 262.535156 L 120.195312 262.535156 C 120.800781 261.894531 121.417969 261.25 122.054688 260.609375 C 134.304688 248.257812 149.527344 240.277344 165.15625 237.984375 L 166.613281 230.808594 L 154.019531 230.808594 C 140.492188 235.113281 127.183594 243.105469 115.796875 254.59375 C 113.246094 257.167969 110.867188 259.816406 108.648438 262.535156 Z M 193.046875 293.191406 C 193.046875 302.015625 188.628906 311.324219 180.609375 319.421875 C 176.101562 323.96875 170.921875 327.273438 165.617188 329.269531 L 167.066406 322.132812 C 170.851562 320.488281 174.441406 318.066406 177.464844 315.015625 C 182.449219 309.988281 185.464844 303.730469 185.964844 297.402344 C 186.46875 291.027344 184.429688 285.175781 180.207031 280.910156 C 178.988281 279.679688 177.59375 278.644531 176.070312 277.800781 L 177.617188 270.171875 C 180.667969 271.328125 183.386719 273.074219 185.683594 275.390625 C 190.5 280.257812 193.046875 286.40625 193.046875 293.191406 Z M 197.53125 293.191406 C 197.53125 303.214844 192.648438 313.667969 183.777344 322.617188 C 178.203125 328.238281 171.554688 332.292969 164.578125 334.402344 L 162.875 342.789062 C 171.859375 340.378906 180.722656 335.113281 188.230469 327.53125 C 207.726562 307.863281 210.679688 281.175781 195.089844 265.441406 C 191.027344 261.335938 185.972656 258.496094 180.28125 257.050781 L 178.515625 265.730469 C 182.449219 267.101562 185.96875 269.292969 188.847656 272.199219 C 194.53125 277.925781 197.53125 285.183594 197.53125 293.191406 Z M 177.042969 284.113281 C 180.316406 287.417969 181.898438 292.011719 181.5 297.039062 C 181.085938 302.300781 178.53125 307.550781 174.300781 311.816406 C 172.464844 313.671875 170.398438 315.25 168.207031 316.519531 L 175.117188 282.503906 C 175.804688 282.976562 176.449219 283.515625 177.042969 284.113281 Z M 51.683594 357.292969 C 50.269531 353.730469 49.089844 350.089844 48.136719 346.367188 L 43.882812 367.324219 L 56.394531 367.324219 C 54.621094 364.089844 53.050781 360.742188 51.683594 357.292969 Z M 74.351562 278.824219 C 68.410156 292.191406 65.394531 305.773438 65.394531 319.164062 C 65.394531 329.539062 67.234375 339.460938 70.855469 348.632812 C 73.523438 355.390625 77.121094 361.648438 81.59375 367.324219 L 61.5625 367.324219 C 59.363281 363.582031 57.449219 359.675781 55.84375 355.617188 C 53.222656 349.007812 51.429688 342.070312 50.472656 334.871094 L 64.046875 267.984375 C 70.6875 255.558594 79.421875 243.855469 90.097656 233.085938 C 90.859375 232.316406 91.625 231.5625 92.398438 230.808594 L 111.632812 230.808594 C 107.964844 233.792969 104.417969 237.003906 101.011719 240.445312 C 89.457031 252.109375 80.484375 265.019531 74.351562 278.824219 Z M 103.121094 312.292969 C 103.121094 312.941406 103.136719 313.585938 103.160156 314.226562 L 113.296875 314.226562 C 113.132812 312.675781 113.046875 311.101562 113.046875 309.503906 C 113.046875 300.199219 115.847656 290.683594 120.980469 282.027344 L 111.394531 282.027344 C 105.984375 291.765625 103.121094 302.09375 103.121094 312.292969 Z M 140.226562 282.027344 L 148.488281 282.027344 C 147.535156 282.792969 146.621094 283.625 145.738281 284.511719 C 139.777344 290.53125 136.492188 297.816406 136.492188 305.023438 C 136.492188 308.3125 137.214844 311.445312 138.574219 314.226562 L 130.601562 314.226562 C 129.984375 311.960938 129.667969 309.5625 129.667969 307.046875 C 129.667969 298.484375 133.496094 289.46875 140.226562 282.027344 Z M 117.519531 309.503906 C 117.519531 311.113281 117.617188 312.6875 117.796875 314.226562 L 126 314.226562 C 125.464844 311.921875 125.1875 309.511719 125.1875 307.046875 C 125.1875 301.941406 126.320312 296.785156 128.546875 291.726562 C 130.039062 288.328125 131.988281 285.089844 134.355469 282.027344 L 126.265625 282.027344 C 120.625 290.589844 117.519531 300.179688 117.519531 309.503906 Z M 161.886719 347.679688 C 172.367188 345.351562 182.742188 339.460938 191.394531 330.730469 C 212.699219 309.238281 215.652344 279.796875 198.265625 262.246094 C 193.550781 257.5 187.726562 254.25 181.183594 252.613281 L 183.214844 242.613281 C 192.027344 244.175781 200.058594 248.089844 206.402344 254.488281 C 214.902344 263.066406 219.476562 273.617188 219.898438 285.402344 C 219.917969 285.992188 219.929688 286.59375 219.929688 287.1875 C 219.925781 289.71875 219.746094 292.300781 219.367188 294.925781 C 217.269531 309.429688 209.546875 324.050781 197.605469 336.09375 C 187.074219 346.71875 173.609375 354.015625 160.054688 356.707031 Z M 209.570312 251.289062 C 215.605469 257.382812 219.867188 264.4375 222.234375 272.261719 C 222.300781 272.488281 222.367188 272.714844 222.433594 272.9375 L 224.546875 262.535156 L 230.519531 262.535156 C 227.695312 255.296875 223.40625 248.75 217.753906 243.039062 C 212.277344 237.511719 205.800781 233.453125 198.695312 230.808594 L 185.613281 230.808594 L 184.117188 238.175781 C 186.238281 238.550781 188.316406 239.058594 190.355469 239.691406 C 197.773438 242.015625 204.242188 245.917969 209.570312 251.289062 Z M 250.546875 262.535156 L 235.304688 262.535156 C 232.273438 254.050781 227.4375 246.425781 220.917969 239.84375 C 217.410156 236.304688 213.488281 233.289062 209.1875 230.808594 L 233.617188 230.808594 C 241.929688 239.835938 247.652344 250.636719 250.546875 262.535156 Z M 162.277344 252.195312 L 164.195312 242.726562 C 151.101562 245.015625 137.722656 251.714844 126.507812 262.535156 L 138.726562 262.535156 C 145.96875 257.257812 154.035156 253.699219 162.277344 252.195312 Z M 147.027344 262.535156 C 151.597656 259.957031 156.414062 258.085938 161.300781 256.996094 L 160.179688 262.535156 Z M 88.550781 308.660156 C 86.820312 327.144531 92.691406 344.214844 105.082031 356.71875 C 109.492188 361.164062 114.683594 364.722656 120.539062 367.324219 L 138.816406 367.324219 L 139.972656 361.726562 C 129.445312 360.089844 120.175781 355.429688 112.8125 348.007812 C 109.027344 344.191406 105.945312 339.773438 103.636719 334.933594 L 92.996094 334.933594 L 97.101562 314.222656 L 98.679688 314.222656 C 98.65625 313.582031 98.636719 312.941406 98.636719 312.289062 C 98.636719 302.085938 101.289062 291.789062 106.308594 282.027344 L 103.683594 282.027344 L 107.257812 264.273438 C 96.53125 278.011719 89.980469 293.421875 88.550781 308.660156 Z M 145.503906 334.933594 L 145.492188 334.964844 L 143.761719 343.351562 C 137.921875 341.988281 132.613281 339.140625 128.105469 334.933594 Z M 142.847656 347.777344 C 135.699219 346.140625 129.257812 342.53125 123.898438 337.128906 C 123.195312 336.417969 122.535156 335.691406 121.898438 334.933594 L 108.675781 334.933594 C 110.628906 338.558594 113.078125 341.878906 115.980469 344.8125 C 122.703125 351.589844 131.207031 355.828125 140.882812 357.285156 Z M 206.324219 352.25 L 203.257812 367.324219 L 184.328125 367.324219 C 192.242188 363.375 199.703125 358.296875 206.324219 352.25 Z M 234.464844 287.191406 L 224.402344 287.191406 C 224.402344 289.945312 224.210938 292.746094 223.800781 295.582031 C 222.636719 303.632812 219.859375 311.703125 215.683594 319.390625 L 225.722656 319.390625 C 230.097656 310.675781 232.925781 301.609375 234.019531 292.585938 C 234.242188 290.773438 234.382812 288.976562 234.464844 287.191406 Z M 239.585938 230.808594 L 260.710938 230.808594 C 262.796875 234.453125 264.621094 238.257812 266.175781 242.21875 C 268.707031 248.6875 270.492188 255.492188 271.496094 262.535156 L 255.160156 262.535156 C 252.480469 250.804688 247.222656 240.035156 239.585938 230.808594 Z M 265.851562 230.808594 C 267.527344 233.949219 269.023438 237.199219 270.339844 240.554688 C 271.929688 244.609375 273.234375 248.78125 274.246094 253.058594 L 278.757812 230.808594 Z M 238.945312 287.191406 L 252.546875 287.191406 C 252.480469 288.230469 252.394531 289.257812 252.277344 290.300781 C 251.257812 300.082031 248.625 309.882812 244.523438 319.390625 L 230.703125 319.390625 C 234.753906 310.832031 237.394531 301.96875 238.46875 293.132812 C 238.707031 291.136719 238.867188 289.160156 238.945312 287.191406 Z M 256.734375 290.769531 C 255.730469 300.394531 253.234375 310.027344 249.386719 319.394531 L 259.714844 319.394531 L 266.148438 287.191406 L 257.035156 287.191406 C 256.960938 288.382812 256.855469 289.578125 256.734375 290.769531 Z M 157.894531 367.324219 L 159.082031 361.46875 C 174.128906 358.90625 189.15625 351.019531 200.777344 339.289062 C 204.898438 335.132812 208.535156 330.679688 211.65625 326.027344 L 207.921875 344.378906 C 207.84375 344.460938 207.765625 344.542969 207.6875 344.625 C 207.300781 345.027344 206.910156 345.433594 206.515625 345.828125 C 196.980469 355.453125 185.3125 362.820312 172.945312 367.324219 Z M 157.894531 367.324219 " fill-opacity="1" fill-rule="evenodd"/></g><path fill="#000000" d="M 409.660156 260.894531 C 405.808594 243.550781 393.085938 227.359375 365.144531 227.359375 C 342.59375 227.359375 322.167969 244.707031 322.167969 265.90625 C 322.167969 285.371094 335.464844 296.933594 353.773438 301.175781 L 374.394531 305.992188 C 390.003906 309.652344 398.867188 318.90625 398.867188 331.625 C 398.867188 346.464844 386.726562 358.027344 365.722656 358.027344 C 343.171875 358.027344 329.875 342.417969 328.140625 324.6875 L 316.769531 328.347656 C 319.082031 349.164062 335.65625 369.011719 365.722656 369.011719 C 393.28125 369.011719 411.011719 351.667969 411.011719 330.660156 C 411.011719 311.386719 397.90625 299.054688 376.707031 294.042969 L 355.890625 289.226562 C 342.015625 285.949219 334.308594 277.46875 334.308594 265.132812 C 334.308594 249.136719 349.148438 238.152344 365.527344 238.152344 C 385.957031 238.152344 395.976562 250.679688 398.867188 264.75 Z M 527.082031 366.507812 L 527.082031 355.328125 L 458.859375 355.328125 L 458.859375 303.679688 L 521.105469 303.679688 L 521.105469 292.5 L 458.859375 292.5 L 458.859375 241.042969 L 527.082031 241.042969 L 527.082031 229.867188 L 446.523438 229.867188 L 446.523438 366.507812 Z M 656.476562 241.042969 L 656.476562 229.867188 L 547.59375 229.867188 L 547.59375 241.042969 L 595.773438 241.042969 L 595.773438 366.507812 L 608.109375 366.507812 L 608.109375 241.042969 Z M 656.476562 241.042969 " fill-opacity="1" fill-rule="nonzero"/></svg>