<svg xmlns="http://www.w3.org/2000/svg" xmlns:xlink="http://www.w3.org/1999/xlink" width="940" zoomAndPan="magnify" viewBox="0 0 705 591.000005" height="788" preserveAspectRatio="xMidYMid meet" version="1.0"><defs><clipPath id="4d99c432b7"><path d="M 0.59375 0 L 704.402344 0 L 704.402344 590 L 0.59375 590 Z M 0.59375 0 " clip-rule="nonzero"/></clipPath><clipPath id="69fb6dfcad"><path d="M 331 213.101562 L 423 213.101562 L 423 377.074219 L 331 377.074219 Z M 331 213.101562 " clip-rule="nonzero"/></clipPath></defs><g clip-path="url(#4d99c432b7)"><path fill="#ffffff" d="M 0.59375 0 L 704.40625 0 L 704.40625 590 L 0.59375 590 Z M 0.59375 0 " fill-opacity="1" fill-rule="nonzero"/><path fill="#191919" d="M 0.59375 0 L 704.40625 0 L 704.40625 590 L 0.59375 590 Z M 0.59375 0 " fill-opacity="1" fill-rule="nonzero"/></g><path fill="#ffffff" d="M 33.9375 215.769531 L 51.066406 215.769531 C 42.535156 224.375 34.894531 233.734375 28.203125 243.78125 Z M 42.058594 274.320312 C 49.085938 258.671875 59.324219 244.054688 72.632812 230.796875 C 78.089844 225.332031 83.960938 220.277344 90.171875 215.699219 L 117.261719 215.699219 C 104.363281 221.644531 92.628906 229.84375 82.59375 239.886719 C 72.632812 249.859375 64.578125 260.792969 58.847656 272.40625 C 53.25 283.609375 49.839844 295.15625 48.746094 306.636719 C 46.5625 329.933594 54.070312 351.523438 69.902344 367.375 C 73.175781 370.652344 76.863281 373.589844 80.753906 376.050781 L 52.703125 376.050781 C 46.425781 369.011719 41.445312 360.882812 37.964844 352.136719 C 33.871094 341.753906 31.820312 330.683594 31.890625 319.480469 C 31.890625 304.519531 35.300781 289.28125 42.058594 274.25 Z M 26.566406 319.546875 C 26.566406 331.710938 28.75 343.394531 33.050781 354.1875 C 36.191406 362.113281 40.488281 369.492188 45.8125 376.117188 L 22.0625 376.117188 C 19.46875 371.746094 17.148438 367.101562 15.238281 362.386719 C 12.097656 354.53125 9.984375 346.398438 8.890625 337.996094 L 24.996094 259.425781 C 32.914062 244.804688 43.285156 231.070312 55.910156 218.433594 C 56.800781 217.542969 57.753906 216.65625 58.640625 215.765625 L 81.503906 215.765625 C 77.066406 219.320312 72.90625 223.078125 68.878906 227.109375 C 55.160156 240.839844 44.515625 255.941406 37.214844 272.203125 C 30.183594 287.914062 26.566406 303.835938 26.566406 319.546875 Z M 163.394531 319.890625 C 158.347656 324.945312 152.273438 328.910156 145.585938 331.4375 L 147.289062 323.03125 C 151.863281 321.050781 156.09375 318.183594 159.644531 314.699219 C 165.578125 308.820312 169.128906 301.441406 169.742188 293.996094 C 170.355469 286.480469 167.898438 279.648438 162.917969 274.59375 C 161.484375 273.15625 159.777344 271.929688 158.003906 270.972656 L 159.847656 262.023438 C 163.464844 263.386719 166.671875 265.4375 169.402344 268.171875 C 174.996094 273.636719 178.203125 281.21875 178.136719 289.078125 C 178.136719 299.460938 172.882812 310.394531 163.394531 319.890625 Z M 164.417969 293.585938 C 163.941406 299.734375 160.871094 305.953125 155.890625 310.941406 C 153.707031 313.125 151.25 314.972656 148.65625 316.472656 L 156.84375 276.503906 C 157.664062 277.050781 158.414062 277.667969 159.164062 278.417969 C 163.054688 282.3125 164.964844 287.710938 164.488281 293.585938 Z M 183.460938 289.078125 C 183.460938 279.648438 179.910156 271.109375 173.15625 264.414062 C 169.675781 260.996094 165.511719 258.402344 160.871094 256.828125 L 162.988281 246.648438 C 169.742188 248.355469 175.75 251.703125 180.59375 256.488281 C 199.085938 274.933594 195.605469 306.292969 172.472656 329.386719 C 163.53125 338.269531 153.023438 344.484375 142.378906 347.289062 L 144.425781 337.449219 C 152.683594 334.988281 160.597656 330.207031 167.21875 323.578125 C 177.726562 313.058594 183.527344 300.761719 183.527344 289.007812 Z M 10.324219 364.367188 C 11.964844 368.398438 13.804688 372.363281 15.921875 376.1875 L 1.042969 376.1875 L 6.09375 351.589844 C 7.253906 355.964844 8.617188 360.269531 10.324219 364.4375 Z M 77.953125 253.003906 C 80.617188 249.792969 83.414062 246.71875 86.417969 243.710938 C 99.929688 230.25 115.761719 220.824219 131.800781 215.769531 L 146.746094 215.769531 L 145.039062 224.171875 C 126.476562 226.902344 108.390625 236.265625 93.855469 250.75 C 93.105469 251.5 92.355469 252.25 91.671875 253.003906 Z M 176.15625 333.144531 C 201.476562 307.933594 204.957031 273.292969 184.277344 252.730469 C 178.683594 247.195312 171.652344 243.234375 164.011719 241.386719 L 166.398438 229.636719 C 176.839844 231.480469 186.394531 236.058594 193.902344 243.574219 C 204 253.617188 209.390625 266.050781 209.9375 279.921875 C 210.074219 283.679688 209.871094 287.4375 209.324219 291.125 C 206.867188 308.140625 197.65625 325.355469 183.460938 339.5 C 170.972656 352 155.003906 360.542969 138.898438 363.753906 L 141.082031 353.164062 C 153.5 350.429688 165.851562 343.53125 176.089844 333.28125 Z M 125.246094 275.960938 C 124.085938 276.847656 122.996094 277.871094 121.972656 278.898438 C 114.875 285.933594 110.984375 294.542969 110.984375 303.015625 C 110.984375 306.910156 111.804688 310.53125 113.441406 313.808594 L 103.957031 313.808594 C 103.203125 311.078125 102.863281 308.207031 102.863281 305.40625 C 102.863281 295.363281 107.4375 284.773438 115.421875 276.027344 C 115.421875 276.027344 125.246094 276.027344 125.246094 276.027344 Z M 140.464844 246.511719 L 139.101562 253.003906 L 123.472656 253.003906 C 128.796875 249.996094 134.460938 247.8125 140.398438 246.511719 Z M 197.792969 239.816406 C 191.445312 233.464844 183.597656 228.816406 174.996094 226.152344 C 172.539062 225.402344 170.085938 224.785156 167.558594 224.375 L 169.332031 215.699219 L 184.894531 215.699219 C 193.355469 218.773438 201.136719 223.691406 207.550781 230.046875 C 214.101562 236.539062 219.289062 244.324219 222.699219 252.933594 L 215.601562 252.933594 L 213.078125 265.164062 C 213.078125 265.164062 212.941406 264.617188 212.871094 264.34375 C 210.074219 255.121094 205.023438 246.855469 197.859375 239.679688 Z M 228.296875 253.003906 C 224.679688 242.960938 218.808594 233.871094 211.234375 226.359375 C 207.070312 222.191406 202.429688 218.636719 197.3125 215.769531 L 226.316406 215.769531 C 236.074219 226.289062 243.035156 239.066406 246.449219 253.003906 Z M 141.625 240.910156 C 131.867188 242.6875 122.246094 246.855469 113.644531 253.070312 L 99.109375 253.070312 C 112.417969 240.363281 128.320312 232.507812 143.878906 229.773438 Z M 121.699219 338.132812 L 119.652344 347.96875 C 112.691406 346.332031 106.277344 342.984375 101.019531 338.0625 L 121.699219 338.0625 Z M 71.402344 311.488281 C 71.402344 299.53125 74.816406 287.367188 81.230469 275.960938 L 92.628906 275.960938 C 86.554688 286.140625 83.210938 297.277344 83.210938 308.207031 C 83.210938 310.121094 83.277344 311.964844 83.484375 313.742188 L 71.472656 313.742188 C 71.472656 312.988281 71.472656 312.238281 71.472656 311.488281 Z M 118.558594 353.164062 L 116.238281 364.367188 C 104.773438 362.660156 94.675781 357.671875 86.691406 349.746094 C 83.277344 346.332031 80.34375 342.367188 78.023438 338.132812 L 93.71875 338.132812 C 100.132812 345.714844 108.871094 351.046875 118.558594 353.230469 Z M 54.070312 307.25 C 55.777344 289.351562 63.554688 271.246094 76.316406 255.121094 L 72.085938 275.960938 L 75.226562 275.960938 C 69.289062 287.4375 66.148438 299.53125 66.148438 311.488281 C 66.148438 312.238281 66.148438 312.988281 66.148438 313.742188 L 64.304688 313.742188 L 59.460938 338.0625 L 72.085938 338.0625 C 74.816406 343.734375 78.5 348.925781 83.003906 353.4375 C 91.738281 362.179688 102.726562 367.648438 115.285156 369.558594 L 113.917969 376.117188 L 92.21875 376.117188 C 85.394531 373.113281 79.183594 368.945312 73.859375 363.683594 C 59.121094 348.996094 52.160156 328.976562 54.207031 307.25 Z M 88.464844 308.207031 C 88.464844 297.277344 92.148438 286.003906 98.835938 275.960938 L 108.460938 275.960938 C 105.730469 279.445312 103.410156 283.269531 101.566406 287.367188 C 98.972656 293.039062 97.609375 299.121094 97.539062 305.335938 C 97.539062 308.207031 97.882812 311.078125 98.496094 313.742188 L 88.738281 313.742188 C 88.53125 311.898438 88.394531 310.050781 88.394531 308.207031 Z M 137.804688 369.285156 C 155.683594 366.28125 173.496094 356.988281 187.28125 343.257812 C 192.058594 338.472656 196.425781 333.28125 200.179688 327.679688 L 195.742188 349.269531 C 195.199219 349.816406 194.652344 350.429688 194.105469 350.976562 C 182.84375 362.179688 169.195312 370.789062 154.25 376.1875 L 136.371094 376.1875 C 136.371094 376.1875 137.804688 369.355469 137.804688 369.285156 Z M 190.285156 376.117188 L 167.832031 376.117188 C 177.316406 371.472656 186.121094 365.460938 193.96875 358.421875 L 190.351562 376.117188 Z M 227.339844 281.972656 C 227.273438 284.089844 227.066406 286.207031 226.792969 288.324219 C 225.5 298.914062 222.152344 309.574219 216.96875 319.820312 L 205.023438 319.820312 C 210.007812 310.804688 213.28125 301.304688 214.648438 291.878906 C 215.125 288.597656 215.328125 285.320312 215.328125 282.039062 L 227.273438 282.039062 Z M 258.460938 215.769531 C 260.917969 220.070312 263.101562 224.511719 264.941406 229.160156 C 267.945312 236.742188 270.0625 244.734375 271.289062 253.003906 L 251.910156 253.003906 C 248.769531 239.269531 242.421875 226.492188 233.414062 215.769531 C 233.414062 215.769531 258.527344 215.769531 258.527344 215.769531 Z M 264.601562 215.769531 L 279.957031 215.769531 L 274.566406 241.933594 C 272.382812 232.847656 269.039062 224.035156 264.601562 215.769531 Z M 253.75 286.207031 C 253.886719 284.773438 254.023438 283.40625 254.09375 281.972656 L 264.941406 281.972656 L 257.300781 319.820312 L 245.015625 319.820312 C 249.519531 309.09375 252.453125 297.753906 253.75 286.207031 Z M 248.769531 281.972656 C 248.699219 283.203125 248.566406 284.429688 248.429688 285.59375 C 247.199219 297.070312 244.058594 308.617188 239.214844 319.753906 L 222.835938 319.753906 C 227.683594 309.710938 230.753906 299.257812 232.050781 288.941406 C 232.324219 286.617188 232.527344 284.292969 232.59375 281.972656 C 232.59375 281.972656 248.769531 281.972656 248.769531 281.972656 Z M 125.726562 282.585938 C 127.773438 280.46875 130.160156 278.691406 132.6875 277.1875 L 125.316406 313.671875 L 119.652344 313.671875 C 117.398438 310.53125 116.238281 306.703125 116.308594 302.878906 C 116.308594 295.839844 119.652344 288.597656 125.726562 282.519531 Z M 125.726562 282.585938 " fill-opacity="1" fill-rule="evenodd"/><g clip-path="url(#69fb6dfcad)"><path fill="#ffffff" d="M 380.410156 288.394531 C 361.167969 281.902344 344.582031 276.367188 344.582031 254.847656 C 344.582031 238.519531 354.617188 222.054688 377 222.054688 C 398.085938 222.054688 410.710938 233.941406 410.710938 253.824219 L 410.710938 259.972656 L 419.992188 259.972656 L 419.992188 254.234375 C 419.992188 243.507812 416.648438 233.667969 410.644531 226.5625 C 403.136719 217.816406 391.671875 213.238281 377.410156 213.238281 C 344.105469 213.238281 335.300781 239.953125 335.300781 254.027344 C 335.300781 281.628906 353.59375 289.554688 377.476562 297.070312 C 395.152344 302.742188 413.441406 308.617188 413.441406 330.683594 C 413.441406 354.1875 399.382812 368.261719 375.839844 368.261719 C 353.796875 368.261719 340.625 354.597656 340.625 331.777344 L 340.625 322.621094 L 331.34375 322.621094 L 331.34375 331.777344 C 331.34375 352.683594 343.015625 377.144531 375.976562 377.144531 C 408.9375 377.144531 422.585938 354.394531 422.585938 331.777344 C 422.585938 302.671875 400.066406 295.15625 380.273438 288.460938 Z M 380.410156 288.394531 " fill-opacity="1" fill-rule="nonzero"/></g><path fill="#ffffff" d="M 493.558594 296.113281 L 554.5 296.113281 L 554.5 287.300781 L 493.558594 287.300781 L 493.558594 224.648438 L 559.277344 224.648438 L 559.277344 215.769531 L 484.277344 215.769531 L 484.277344 374.480469 L 560.984375 374.480469 L 560.984375 365.664062 L 493.558594 365.664062 Z M 493.558594 296.113281 " fill-opacity="1" fill-rule="nonzero"/><path fill="#ffffff" d="M 611.144531 215.769531 L 611.144531 224.648438 L 652.910156 224.648438 L 652.910156 374.480469 L 662.191406 374.480469 L 662.191406 224.648438 L 703.957031 224.648438 L 703.957031 215.769531 Z M 611.144531 215.769531 " fill-opacity="1" fill-rule="nonzero"/></svg>